<svg xmlns="http://www.w3.org/2000/svg" xmlns:xlink="http://www.w3.org/1999/xlink" display="block" class="plt-container" width="600.0" height="400.0">
  <style type="text/css">
  .plt-container {
   font-family: sans-serif;
   user-select: none;
   -webkit-user-select: none;
   -moz-user-select: none;
   -ms-user-select: none;
}
text {
   text-rendering: optimizeLegibility;
}
#p3Un3BZ .plot-title {
fill: #000000;
font-weight: normal;
   font-style: normal;font-family: sans-serif;
font-size: 16.0px;

}
#p3Un3BZ .plot-subtitle {
fill: #000000;
font-weight: normal;
   font-style: normal;font-family: sans-serif;
font-size: 15.0px;

}
#p3Un3BZ .plot-caption {
fill: #000000;
font-weight: normal;
   font-style: normal;font-family: sans-serif;
font-size: 13.0px;

}
#p3Un3BZ .hyperlink-element {
fill: #118ed8;
font-weight: normal;
   font-style: normal;
}
#p3Un3BZ .legend-title {
fill: #000000;
font-weight: normal;
   font-style: normal;font-family: sans-serif;
font-size: 15.0px;

}
#p3Un3BZ .legend-item {
fill: #000000;
font-weight: normal;
   font-style: normal;font-family: sans-serif;
font-size: 13.0px;

}
#p3Un3BZ .axis-title-x {
fill: #000000;
font-weight: normal;
   font-style: normal;font-family: sans-serif;
font-size: 15.0px;

}
#p3Un3BZ .axis-text-x {
fill: #000000;
font-weight: normal;
   font-style: normal;font-family: sans-serif;
font-size: 13.0px;

}
#dv2O0N8 .axis-tooltip-text-x {
fill: #ffffff;
font-weight: normal;
   font-style: normal;font-family: sans-serif;
font-size: 13.0px;

}
#p3Un3BZ .axis-title-y {
fill: #000000;
font-weight: normal;
   font-style: normal;font-family: sans-serif;
font-size: 15.0px;

}
#p3Un3BZ .axis-text-y {
fill: #000000;
font-weight: normal;
   font-style: normal;font-family: sans-serif;
font-size: 13.0px;

}
#dv2O0N8 .axis-tooltip-text-y {
fill: #ffffff;
font-weight: normal;
   font-style: normal;font-family: sans-serif;
font-size: 13.0px;

}
#p3Un3BZ .facet-strip-text-x {
fill: #000000;
font-weight: normal;
   font-style: normal;font-family: sans-serif;
font-size: 13.0px;

}
#p3Un3BZ .facet-strip-text-y {
fill: #000000;
font-weight: normal;
   font-style: normal;font-family: sans-serif;
font-size: 13.0px;

}
#dv2O0N8 .tooltip-text {
fill: #000000;
font-weight: normal;
   font-style: normal;font-family: sans-serif;
font-size: 13.0px;

}
#dv2O0N8 .tooltip-title {
fill: #000000;
font-weight: bold;
   font-style: normal;font-family: sans-serif;
font-size: 13.0px;

}
#dv2O0N8 .tooltip-label {
fill: #000000;
font-weight: bold;
   font-style: normal;font-family: sans-serif;
font-size: 13.0px;

}

  </style>
  <g id="p3Un3BZ">
    <path fill-rule="evenodd" fill="rgb(255,255,255)" fill-opacity="1.0" d="M0.0 0.0 L0.0 400.0 L600.0 400.0 L600.0 0.0 Z">
    </path>
    <g transform="translate(21.0 6.0 ) ">
      <g>
        <g transform="">
          <g>
          </g>
        </g>
        <g transform="">
          <g>
          </g>
        </g>
        <g transform="translate(0.0 373.0 ) ">
        </g>
        <g transform="">
        </g>
      </g>
      <g clip-path="url(#cSBJlt0)" clip-bounds-jfx="[rect (0.0, 0.0), (573.0, 373.0)]">
        <g transform="">
          <g>
            <g>
              <line x1="0.0" y1="186.5" x2="573.0" y2="186.5" stroke="rgb(115,192,222)" stroke-opacity="0.5" fill="none" stroke-width="1.1">
              </line>
            </g>
            <g>
              <line x1="286.62681452560224" y1="373.0" x2="286.62681452560224" y2="0.0" stroke="rgb(115,192,222)" stroke-opacity="0.5" fill="none" stroke-width="1.1">
              </line>
            </g>
            <g>
              <g>
                <path d="M26.04545454545456 186.5 L26.04545454545456 186.5 L26.306041869668718 186.5 L26.566629193882875 186.5 L26.827216518097032 186.5 L27.08780384231119 186.5 L27.348391166525346 186.5 L27.608978490739503 186.5 L27.86956581495366 186.5 L28.130153139167817 186.5 L28.390740463381974 186.5 L28.65132778759613 186.5 L28.911915111810288 186.5 L29.172502436024445 186.5 L29.4330897602386 186.5 L29.69367708445276 186.5 L29.95426440866686 186.5 L30.214851732881016 186.5 L30.475439057095173 186.5 L30.736026381309358 186.5 L30.996613705523515 186.5 L31.257201029737672 186.5 L31.51778835395183 186.5 L31.778375678165986 186.5 L32.03896300238014 186.5 L32.2995503265943 186.5 L32.56013765080846 186.5 L32.820724975022614 186.5 L33.08131229923677 186.5 L33.34189962345093 186.5 L33.602486947665085 186.5 L33.86307427187921 186.5 L34.12366159609337 186.5 L34.38424892030753 186.5 L34.644836244521684 186.5 L34.90542356873584 186.5 L35.16601089295 186.5 L35.426598217164155 186.5 L35.68718554137831 186.5 L35.94777286559247 186.5 L36.208360189806626 186.5 L36.46894751402078 186.5 L36.72953483823494 186.5 L36.9901221624491 186.5 L37.250709486663254 186.5 L37.51129681087741 186.5 L37.77188413509157 186.5 L38.032471459305725 186.5 L38.29305878351988 186.5 L38.55364610773404 186.5 L38.814233431948196 186.5 L39.07482075616235 186.5 L39.33540808037651 186.5 L39.59599540459067 186.5 L39.856582728804824 186.5 L40.11717005301898 186.5 L40.37775737723314 186.5 L40.638344701447295 186.5 L40.89893202566145 186.5 L41.15951934987561 186.5 L41.420106674089766 186.5 L41.680693998303894 186.5 L41.94128132251805 186.5 L42.20186864673221 186.5 L42.462455970946365 186.5 L42.72304329516052 186.5 L42.98363061937468 186.5 L43.244217943588836 186.5 L43.50480526780299 186.5 L43.76539259201715 186.5 L44.02597991623131 186.5 L44.286567240445464 186.5 L44.54715456465962 186.5 L44.80774188887378 186.5 L45.068329213087935 186.5 L45.32891653730209 186.5 L45.58950386151625 186.5 L45.850091185730406 186.5 L46.11067850994456 186.5 L46.37126583415872 186.5 L46.63185315837288 186.5 L46.892440482587034 186.5 L47.15302780680119 186.5 L47.41361513101535 186.5 L47.674202455229505 186.5 L47.93478977944366 186.5 L48.19537710365782 186.5 L48.455964427871976 186.5 L48.71655175208613 186.5 L48.97713907630029 186.5 L49.23772640051445 186.5 L49.498313724728575 186.5 L49.75890104894273 186.5 L50.01948837315689 186.5 L50.280075697371046 186.5 L50.5406630215852 186.5 L50.80125034579936 186.5 L51.06183767001352 186.5 L51.322424994227674 186.5 L51.58301231844183 186.5 L51.84359964265599 186.5 L52.104186966870145 186.5 L52.3647742910843 186.5 L52.62536161529846 186.5 L52.885948939512616 186.5 L53.14653626372677 186.5 L53.40712358794093 186.5 L53.66771091215509 186.5 L53.928298236369244 186.5 L54.1888855605834 186.5 L54.44947288479756 186.5 L54.710060209011715 186.5 L54.97064753322587 186.5 L55.23123485744003 186.5 L55.491822181654186 186.5 L55.75240950586834 186.5 L56.0129968300825 186.5 L56.27358415429666 186.5 L56.534171478510814 186.5 L56.79475880272497 186.5 L57.05534612693913 186.5 L57.315933451153256 186.5 L57.57652077536741 186.5 L57.83710809958157 186.5 L58.09769542379573 186.5 L58.358282748009884 186.5 L58.61887007222404 186.5 L58.8794573964382 186.5 L59.140044720652355 186.5 L59.40063204486651 186.5 L59.66121936908067 186.5 L59.921806693294826 186.5 L60.18239401750898 186.5 L60.44298134172314 186.5 L60.7035686659373 186.5 L60.964155990151454 186.5 L61.22474331436561 186.5 L61.48533063857977 186.5 L61.745917962793925 186.5 L62.00650528700808 186.5 L62.26709261122224 186.5 L62.527679935436396 186.5 L62.78826725965055 186.5 L63.04885458386471 186.5 L63.30944190807887 186.5 L63.570029232293024 186.5 L63.83061655650718 186.5 L64.09120388072134 186.5 L64.3517912049355 186.5 L64.61237852914965 186.5 L64.87296585336381 186.5 L65.13355317757794 186.5 L65.3941405017921 186.5 L65.65472782600625 186.5 L65.91531515022041 186.5 L66.17590247443457 186.5 L66.43648979864872 186.5 L66.69707712286288 186.5 L66.95766444707704 186.5 L67.2182517712912 186.5 L67.47883909550535 186.5 L67.7394264197195 186.5 L68.00001374393366 186.5 L68.26060106814782 186.5 L68.52118839236198 186.5 L68.78177571657613 186.5 L69.04236304079029 186.5 L69.30295036500445 186.5 L69.5635376892186 186.5 L69.82412501343276 186.5 L70.08471233764692 186.5 L70.34529966186108 186.5 L70.60588698607523 186.5 L70.86647431028939 186.5 L71.12706163450355 186.5 L71.3876489587177 186.5 L71.64823628293186 186.5 L71.90882360714602 186.5 L72.16941093136018 186.5 L72.42999825557433 186.5 L72.69058557978849 186.5 L72.95117290400262 186.5 L73.21176022821678 186.5 L73.47234755243093 186.5 L73.73293487664509 186.5 L73.99352220085925 186.5 L74.2541095250734 186.5 L74.51469684928756 186.5 L74.77528417350172 186.5 L75.03587149771587 186.5 L75.29645882193003 186.5 L75.55704614614419 186.5 L75.81763347035834 186.5 L76.0782207945725 186.5 L76.33880811878666 186.5 L76.59939544300082 186.5 L76.85998276721497 186.5 L77.12057009142913 186.5 L77.38115741564329 186.5 L77.64174473985744 186.5 L77.9023320640716 186.5 L78.16291938828576 186.5 L78.42350671249991 186.5 L78.68409403671407 186.5 L78.94468136092823 186.5 L79.20526868514239 186.5 L79.46585600935654 186.5 L79.7264433335707 186.5 L79.98703065778486 186.5 L80.24761798199901 186.5 L80.50820530621317 186.5 L80.7687926304273 186.5 L81.02937995464146 186.5 L81.28996727885561 186.5 L81.55055460306977 186.5 L81.81114192728393 186.5 L82.07172925149808 186.5 L82.33231657571224 186.5 L82.5929038999264 186.5 L82.85349122414056 186.5 L83.11407854835471 186.5 L83.37466587256887 186.5 L83.63525319678303 186.5 L83.89584052099718 186.5 L84.15642784521134 186.5 L84.4170151694255 186.5 L84.67760249363965 186.5 L84.93818981785381 186.5 L85.19877714206797 186.5 L85.45936446628212 186.5 L85.71995179049628 186.5 L85.98053911471044 186.5 L86.2411264389246 186.5 L86.50171376313875 186.5 L86.76230108735291 186.5 L87.02288841156707 186.5 L87.28347573578122 186.5 L87.54406305999538 186.5 L87.80465038420954 186.5 L88.0652377084237 186.5 L88.32582503263785 186.5 L88.58641235685198 186.5 L88.84699968106614 186.5 L89.1075870052803 186.5 L89.36817432949445 186.5 L89.62876165370861 186.5 L89.88934897792277 186.5 L90.14993630213692 186.5 L90.41052362635108 186.5 L90.67111095056524 186.5 L90.9316982747794 186.5 L91.19228559899355 186.5 L91.4528729232077 186.5 L91.71346024742186 186.5 L91.97404757163602 186.5 L92.23463489585018 186.5 L92.49522222006433 186.5 L92.75580954427849 186.5 L93.01639686849265 186.5 L93.2769841927068 186.5 L93.53757151692096 186.5 L93.79815884113512 186.5 L94.05874616534928 186.5 L94.31933348956343 186.5 L94.57992081377759 186.5 L94.84050813799175 186.5 L95.1010954622059 186.5 L95.36168278642006 186.5 L95.62227011063422 186.5 L95.88285743484838 186.5 L96.14344475906253 186.5 L96.40403208327666 186.5 L96.66461940749082 186.5 L96.92520673170498 186.5 L97.18579405591913 186.5 L97.44638138013329 186.5 L97.70696870434745 186.5 L97.9675560285616 186.5 L98.22814335277576 186.5 L98.48873067698992 186.5 L98.74931800120407 186.5 L99.00990532541823 186.5 L99.27049264963239 186.5 L99.53107997384654 186.5 L99.7916672980607 186.5 L100.05225462227486 186.5 L100.31284194648902 186.5 L100.57342927070317 186.5 L100.83401659491733 186.5 L101.09460391913149 186.5 L101.35519124334564 186.5 L101.6157785675598 186.5 L101.87636589177396 186.5 L102.13695321598811 186.5 L102.39754054020227 186.5 L102.65812786441643 186.5 L102.91871518863059 186.5 L103.17930251284474 186.5 L103.4398898370589 186.5 L103.70047716127306 186.5 L103.96106448548721 186.5 L104.22165180970134 186.5 L104.4822391339155 186.5 L104.74282645812966 186.5 L105.00341378234381 186.5 L105.26400110655797 186.5 L105.52458843077213 186.5 L105.78517575498628 186.5 L106.04576307920044 186.5 L106.3063504034146 186.5 L106.56693772762875 186.5 L106.82752505184291 186.5 L107.08811237605707 186.5 L107.34869970027123 186.5 L107.60928702448538 186.5 L107.86987434869954 186.5 L108.1304616729137 186.5 L108.39104899712785 186.5 L108.65163632134201 186.5 L108.91222364555617 186.5 L109.17281096977032 186.5 L109.43339829398448 186.5 L109.69398561819864 186.5 L109.9545729424128 186.5 L110.21516026662695 186.5 L110.47574759084111 186.5 L110.73633491505527 186.5 L110.99692223926942 186.5 L111.25750956348358 186.5 L111.51809688769774 186.5 L111.7786842119119 186.5 L112.03927153612602 186.5 L112.29985886034018 186.5 L112.56044618455434 186.5 L112.8210335087685 186.5 L113.08162083298265 186.5 L113.34220815719681 186.5 L113.60279548141096 186.5 L113.86338280562512 186.5 L114.12397012983928 186.5 L114.38455745405344 186.5 L114.64514477826759 186.5 L114.90573210248175 186.5 L115.1663194266959 186.5 L115.42690675091006 186.5 L115.68749407512422 186.5 L115.94808139933838 186.5 L116.20866872355253 186.5 L116.46925604776669 186.5 L116.72984337198085 186.5 L116.990430696195 186.5 L117.25101802040916 186.5 L117.51160534462332 186.5 L117.77219266883748 186.5 L118.03277999305163 186.5 L118.29336731726579 186.5 L118.55395464147995 186.5 L118.8145419656941 186.5 L119.07512928990826 186.5 L119.33571661412242 186.5 L119.59630393833658 186.5 L119.8568912625507 186.5 L120.11747858676486 186.5 L120.37806591097902 186.5 L120.63865323519317 186.5 L120.89924055940733 186.5 L121.15982788362149 186.5 L121.42041520783565 186.5 L121.6810025320498 186.5 L121.94158985626396 186.5 L122.20217718047812 186.5 L122.46276450469227 186.5 L122.72335182890643 186.5 L122.98393915312059 186.5 L123.24452647733474 186.5 L123.5051138015489 186.5 L123.76570112576306 186.5 L124.02628844997722 186.5 L124.28687577419137 186.5 L124.54746309840553 186.5 L124.80805042261969 186.5 L125.06863774683384 186.5 L125.329225071048 186.5 L125.58981239526216 186.5 L125.85039971947631 186.5 L126.11098704369047 186.5 L126.37157436790463 186.5 L126.63216169211879 186.5 L126.89274901633294 186.5 L127.1533363405471 186.5 L127.41392366476126 186.5 L127.67451098897538 186.5 L127.93509831318954 186.5 L128.1956856374037 186.5 L128.45627296161786 186.5 L128.716860285832 186.5 L128.97744761004617 186.5 L129.23803493426033 186.5 L129.49862225847448 186.5 L129.75920958268864 186.5 L130.0197969069028 186.5 L130.28038423111695 186.5 L130.5409715553311 186.5 L130.80155887954527 186.5 L131.06214620375943 186.5 L131.32273352797358 186.5 L131.58332085218774 186.5 L131.8439081764019 186.5 L132.10449550061605 186.5 L132.3650828248302 186.5 L132.62567014904437 186.5 L132.88625747325852 186.5 L133.14684479747268 186.5 L133.40743212168684 186.5 L133.668019445901 186.5 L133.92860677011515 186.5 L134.1891940943293 186.5 L134.44978141854347 186.5 L134.71036874275762 186.5 L134.97095606697178 186.5 L135.23154339118594 186.5 L135.49213071540007 186.5 L135.75271803961422 186.5 L136.01330536382838 186.5 L136.27389268804254 186.5 L136.5344800122567 186.5 L136.79506733647085 186.5 L137.055654660685 186.5 L137.31624198489916 186.5 L137.57682930911332 186.5 L137.83741663332748 186.5 L138.09800395754164 186.5 L138.3585912817558 186.5 L138.61917860596995 186.5 L138.8797659301841 186.5 L139.14035325439826 186.5 L139.40094057861242 186.5 L139.66152790282658 186.5 L139.92211522704073 186.5 L140.1827025512549 186.5 L140.44328987546905 186.5 L140.7038771996832 186.5 L140.96446452389736 186.5 L141.22505184811152 186.5 L141.48563917232568 186.5 L141.74622649653983 186.5 L142.006813820754 186.5 L142.26740114496815 186.5 L142.5279884691823 186.5 L142.78857579339646 186.5 L143.04916311761062 186.5 L143.30975044182475 186.5 L143.5703377660389 186.5 L143.83092509025306 186.5 L144.09151241446722 186.5 L144.35209973868137 186.5 L144.61268706289553 186.5 L144.8732743871097 186.5 L145.13386171132385 186.5 L145.394449035538 186.5 L145.65503635975216 186.5 L145.91562368396632 186.5 L146.17621100818047 186.5 L146.43679833239463 186.5 L146.6973856566088 186.5 L146.95797298082294 186.5 L147.2185603050371 186.5 L147.47914762925126 186.5 L147.73973495346542 186.5 L148.00032227767957 186.5 L148.26090960189373 186.5 L148.5214969261079 186.5 L148.78208425032204 186.5 L149.0426715745362 186.5 L149.30325889875036 186.5 L149.56384622296451 186.5 L149.82443354717867 186.5 L150.08502087139283 186.5 L150.34560819560699 186.5 L150.60619551982114 186.5 L150.8667828440353 186.5 L151.12737016824943 186.5 L151.38795749246358 186.5 L151.64854481667774 186.5 L151.9091321408919 186.5 L152.16971946510606 186.5 L152.4303067893202 186.5 L152.69089411353437 186.5 L152.95148143774853 186.5 L153.21206876196268 186.5 L153.47265608617684 186.5 L153.733243410391 186.5 L153.99383073460515 186.5 L154.2544180588193 186.5 L154.51500538303347 186.5 L154.77559270724763 186.5 L155.03618003146178 186.5 L155.29676735567594 186.5 L155.5573546798901 186.5 L155.81794200410425 186.5 L156.0785293283184 186.5 L156.33911665253257 186.5 L156.59970397674672 186.5 L156.86029130096088 186.5 L157.12087862517504 186.5 L157.3814659493892 186.5 L157.64205327360335 186.5 L157.9026405978175 186.5 L158.16322792203167 186.5 L158.42381524624582 186.5 L158.68440257045995 186.5 L158.9449898946741 186.5 L159.20557721888827 186.5 L159.46616454310242 186.5 L159.72675186731658 186.5 L159.98733919153074 186.5 L160.2479265157449 186.5 L160.50851383995905 186.5 L160.7691011641732 186.5 L161.02968848838736 186.5 L161.29027581260152 186.5 L161.55086313681568 186.5 L161.81145046102984 186.5 L162.072037785244 186.5 L162.33262510945815 186.5 L162.5932124336723 186.5 L162.85379975788646 186.5 L163.11438708210062 186.5 L163.37497440631478 186.5 L163.63556173052893 186.5 L163.8961490547431 186.5 L164.15673637895725 186.5 L164.4173237031714 186.5 L164.67791102738556 186.5 L164.93849835159972 186.5 L165.19908567581388 186.5 L165.45967300002803 186.5 L165.7202603242422 186.5 L165.98084764845635 186.5 L166.2414349726705 186.5 L166.50202229688466 186.5 L166.76260962109882 186.5 L167.02319694531298 186.5 L167.28378426952713 186.5 L167.5443715937413 186.5 L167.80495891795545 186.5 L168.0655462421696 186.5 L168.32613356638376 186.5 L168.5867208905979 186.5 L168.84730821481205 186.5 L169.1078955390262 186.5 L169.36848286324036 186.5 L169.62907018745452 186.5 L169.88965751166867 186.5 L170.15024483588283 186.5 L170.410832160097 186.5 L170.67141948431114 186.5 L170.9320068085253 186.5 L171.19259413273946 186.5 L171.45318145695362 186.5 L171.71376878116777 186.5 L171.97435610538193 186.5 L172.2349434295961 186.5 L172.49553075381021 186.5 L172.75611807802437 186.5 L173.01670540223853 186.5 L173.27729272645269 186.5 L173.53788005066684 186.5 L173.798467374881 186.5 L174.05905469909516 186.5 L174.3196420233093 186.5 L174.58022934752347 186.5 L174.84081667173763 186.5 L175.10140399595178 186.5 L175.36199132016594 186.5 L175.6225786443801 186.5 L175.88316596859426 186.5 L176.1437532928084 186.5 L176.40434061702257 186.5 L176.66492794123673 186.5 L176.92551526545088 186.5 L177.18610258966504 186.5 L177.4466899138792 186.5 L177.70727723809335 186.5 L177.9678645623075 186.5 L178.22845188652167 186.5 L178.48903921073583 186.5 L178.74962653494998 186.5 L179.01021385916414 186.5 L179.2708011833783 186.5 L179.53138850759245 186.5 L179.7919758318066 186.5 L180.05256315602077 186.5 L180.31315048023492 186.5 L180.57373780444908 186.5 L180.83432512866324 186.5 L181.0949124528774 186.5 L181.35549977709155 186.5 L181.6160871013057 186.5 L181.87667442551987 186.5 L182.13726174973402 186.5 L182.39784286120442 186.5 L182.6584239726748 186.5 L182.9190050841452 186.5 L183.1795861956156 186.5 L183.440167307086 186.5 L183.70074841855637 186.5 L183.96132953002677 186.5 L184.22191064149717 186.5 L184.48249175296758 186.5 L184.74307286443798 186.5 L185.00365397590838 186.5 L185.26423508737878 186.5 L185.52481619884918 186.5 L185.78539731031958 186.5 L186.04597842178998 186.5 L186.30655953326038 186.5 L186.56714064473078 186.5 L186.82772175620116 186.5 L187.08830286767156 186.5 L187.34888397914196 186.5 L187.60946509061233 186.5 L187.87004620208273 186.5 L188.13062731355313 186.5 L188.39120842502354 186.5 L188.65178953649394 186.5 L188.91237064796434 186.5 L189.17295175943474 186.5 L189.43353287090514 186.5 L189.69411398237554 186.5 L189.95469509384594 186.5 L190.21527620531634 186.5 L190.47585731678674 186.5 L190.73643842825712 186.5 L190.99701953972752 186.5 L191.25760065119792 186.5 L191.51818176266832 186.5 L191.7787628741387 186.5 L192.0393439856091 186.5 L192.2999250970795 186.5 L192.5605062085499 186.5 L192.8210873200203 186.5 L193.0816684314907 186.5 L193.3422495429611 186.5 L193.6028306544315 186.5 L193.8634117659019 186.5 L194.1239928773723 186.5 L194.3845739888427 186.5 L194.64515510031308 186.5 L194.90573621178348 186.5 L195.16631732325388 186.5 L195.42689843472428 186.5 L195.68747954619465 186.5 L195.94806065766505 186.5 L196.20864176913545 186.5 L196.46922288060586 186.5 L196.72980399207626 186.5 L196.99038510354666 186.5 L197.25096621501706 186.5 L197.51154732648746 186.5 L197.77212843795786 186.5 L198.03270954942826 186.5 L198.29329066089866 186.5 L198.55387177236904 186.5 L198.81445288383944 186.5 L199.07503399530984 186.5 L199.33561510678024 186.5 L199.5961962182506 186.5 L199.856777329721 186.5 L200.1173584411914 186.5 L200.37793955266181 186.5 L200.63852066413222 186.5 L200.89910177560262 186.5 L201.15968288707302 186.5 L201.42026399854342 186.5 L201.68084511001382 186.5 L201.94142622148422 186.5 L202.20200733295462 186.5 L202.46258844442502 186.5 L202.7231695558954 186.5 L202.9837506673658 186.5 L203.2443317788362 186.5 L203.50491289030657 186.5 L203.76549400177697 186.5 L204.02607511324737 186.5 L204.28665622471777 186.5 L204.54723733618818 186.5 L204.80781844765858 186.5 L205.06839955912898 186.5 L205.32898067059938 186.5 L205.58956178206978 186.5 L205.85014289354018 186.5 L206.11072400501058 186.5 L206.37130511648098 186.5 L206.63188622795136 186.5 L206.89246733942176 186.5 L207.15304845089216 186.5 L207.41362956236256 186.5 L207.67421067383293 186.5 L207.93479178530333 186.5 L208.19537289677373 186.5 L208.45595400824413 186.5 L208.71653511971454 186.5 L208.97711623118494 186.5 L209.23769734265534 186.5 L209.49827845412574 186.5 L209.75885956559614 186.5 L210.01944067706654 186.5 L210.28002178853694 186.5 L210.54060290000731 186.5 L210.80118401147772 186.5 L211.06176512294812 186.5 L211.32234623441852 186.5 L211.5829273458889 186.5 L211.8435084573593 186.5 L212.1040895688297 186.5 L212.3646706803001 186.5 L212.6252517917705 186.5 L212.8858329032409 186.5 L213.1464140147113 186.5 L213.4069951261817 186.5 L213.6675762376521 186.5 L213.9281573491225 186.5 L214.1887384605929 186.5 L214.44931957206327 186.5 L214.70990068353368 186.5 L214.97048179500408 186.5 L215.23106290647448 186.5 L215.49164401794485 186.5 L215.75222512941525 186.5 L216.01280624088565 186.5 L216.27338735235605 186.5 L216.53396846382645 186.5 L216.79454957529686 186.5 L217.05513068676726 186.5 L217.31571179823766 186.5 L217.57629290970806 186.5 L217.83687402117846 186.5 L218.09745513264886 186.5 L218.35803624411923 186.5 L218.61861735558963 186.5 L218.87919846706004 186.5 L219.13977957853044 186.5 L219.4003606900008 186.5 L219.6609418014712 186.5 L219.9215229129416 186.5 L220.182104024412 186.5 L220.4426851358824 186.5 L220.70326624735281 186.5 L220.96384735882322 186.5 L221.22442847029362 186.5 L221.48500958176402 186.5 L221.74559069323442 186.5 L222.00617180470482 186.5 L222.26675291617522 186.5 L222.5273340276456 186.5 L222.787915139116 186.5 L223.0484962505864 186.5 L223.3090773620568 186.5 L223.56965847352717 186.5 L223.83023958499757 186.5 L224.09082069646797 186.5 L224.35140180793837 186.5 L224.61198291940877 186.5 L224.87256403087918 186.5 L225.13314514234958 186.5 L225.39372625381998 186.5 L225.65430736529038 186.5 L225.91488847676078 186.5 L226.17546958823115 186.5 L226.43605069970155 186.5 L226.69663181117195 186.5 L226.95721292264236 186.5 L227.21779403411276 186.5 L227.47837514558316 186.5 L227.73895625705353 186.5 L227.99953736852393 186.5 L228.26011847999433 186.5 L228.52069959146473 186.5 L228.78128070293513 186.5 L229.04186181440554 186.5 L229.30244292587594 186.5 L229.56302403734634 186.5 L229.82360514881674 186.5 L230.0841862602871 186.5 L230.3447673717575 186.5 L230.6053484832279 186.5 L230.86592959469831 186.5 L231.12651070616872 186.5 L231.38709181763912 186.5 L231.6476729291095 186.5 L231.9082540405799 186.5 L232.1688351520503 186.5 L232.4294162635207 186.5 L232.6899973749911 186.5 L232.9505784864615 186.5 L233.2111595979319 186.5 L233.4717407094023 186.5 L233.7323218208727 186.5 L233.99290293234307 186.5 L234.25348404381347 186.5 L234.51406515528387 186.5 L234.77464626675427 186.5 L235.03522737822468 186.5 L235.29580848969508 186.5 L235.55638960116545 186.5 L235.81697071263585 186.5 L236.07755182410625 186.5 L236.33813293557665 186.5 L236.59871404704705 186.5 L236.85929515851745 186.5 L237.11987626998786 186.5 L237.38045738145826 186.5 L237.64103849292866 186.5 L237.90161960439906 186.5 L238.16220071586943 186.5 L238.42278182733983 186.5 L238.68336293881023 186.5 L238.94394405028063 186.5 L239.20452516175104 186.5 L239.4651062732214 186.5 L239.7256873846918 186.5 L239.9862684961622 186.5 L240.2468496076326 186.5 L240.507430719103 186.5 L240.7680118305734 186.5 L241.02859294204382 186.5 L241.28917405351422 186.5 L241.54975516498462 186.5 L241.81033627645502 186.5 L242.0709173879254 186.5 L242.3314984993958 186.5 L242.5920796108662 186.5 L242.8526607223366 186.5 L243.113241833807 186.5 L243.37382294527737 186.5 L243.63440405674777 186.5 L243.89498516821817 186.5 L244.15556627968857 186.5 L244.41614739115897 186.5 L244.67672850262937 186.5 L244.93730961409977 186.5 L245.19789072557018 186.5 L245.45847183704058 186.5 L245.71905294851098 186.5 L245.97963405998135 186.5 L246.24021517145175 186.5 L246.50079628292215 186.5 L246.76137739439255 186.5 L247.02195850586295 186.5 L247.28253961733336 186.5 L247.54312072880373 186.5 L247.80370184027413 186.5 L248.06428295174453 186.5 L248.32486406321493 186.5 L248.58544517468533 186.5 L248.84602628615573 186.5 L249.10660739762614 186.5 L249.36718850909654 186.5 L249.62776962056694 186.5 L249.8883507320373 186.5 L250.1489318435077 186.5 L250.4095129549781 186.5 L250.6700940664485 186.5 L250.9306751779189 186.5 L251.19125628938932 186.5 L251.4518374008597 186.5 L251.7124185123301 186.5 L251.9729996238005 186.5 L252.2335807352709 186.5 L252.4941618467413 186.5 L252.7547429582117 186.5 L253.0153240696821 186.5 L253.2759051811525 186.5 L253.5364862926229 186.5 L253.79706740409327 186.5 L254.05764851556367 186.5 L254.31822962703407 186.5 L254.57881073850447 186.5 L254.83939184997487 186.5 L255.09997296144527 186.5 L255.36055407291568 186.5 L255.62113518438605 186.5 L255.88171629585645 186.5 L256.14229740732685 186.5 L256.40287851879725 186.5 L256.66345963026765 186.5 L256.92404074173805 186.5 L257.18462185320845 186.5 L257.44520296467886 186.5 L257.70578407614926 186.5 L257.96636518761966 186.5 L258.22694629909006 186.5 L258.48752741056046 186.5 L258.7481085220308 186.5 L259.0086896335012 186.5 L259.2692707449716 186.5 L259.529851856442 186.5 L259.7904329679124 186.5 L260.0510140793828 186.5 L260.3115951908532 186.5 L260.5721763023236 186.5 L260.832757413794 186.5 L261.0933385252644 186.5 L261.3539196367348 186.5 L261.6145007482052 186.5 L261.8750818596756 186.5 L262.135662971146 186.5 L262.39624408261636 186.5 L262.65682519408676 186.5 L262.91740630555717 186.5 L263.17798741702757 186.5 L263.43856852849797 186.5 L263.69914963996837 186.5 L263.95973075143877 186.5 L264.22031186290917 186.5 L264.48089297437957 186.5 L264.74147408585 186.5 L265.0020551973204 186.5 L265.2626363087908 186.5 L265.5232174202612 186.5 L265.7837985317316 186.5 L266.044379643202 186.5 L266.3049607546724 186.5 L266.5655418661427 186.5 L266.8261229776131 186.5 L267.0867040890835 186.5 L267.3472852005539 186.5 L267.6078663120243 186.5 L267.86844742349473 186.5 L268.12902853496513 186.5 L268.38960964643553 186.5 L268.65019075790593 186.5 L268.91077186937633 186.5 L269.17135298084673 186.5 L269.43193409231714 186.5 L269.69251520378754 186.5 L269.95309631525794 186.5 L270.21367742672834 186.5 L270.4742585381987 186.5 L270.7348396496691 186.5 L270.9954207611395 186.5 L271.2560018726099 186.5 L271.5165829840803 186.5 L271.7771640955507 186.5 L272.0377452070211 186.5 L272.2983263184915 186.5 L272.5589074299619 186.5 L272.8194885414323 186.5 L273.0800696529027 186.5 L273.3406507643731 186.5 L273.6012318758435 186.5 L273.8618129873139 186.5 L274.1223940987843 186.5 L274.3829752102547 186.5 L274.64355632172504 186.5 L274.90413743319544 186.5 L275.16471854466585 186.5 L275.42529965613625 186.5 L275.68588076760665 186.5 L275.94646187907705 186.5 L276.20704299054745 186.5 L276.46762410201785 186.5 L276.72820521348825 186.5 L276.98878632495865 186.5 L277.24936743642905 186.5 L277.50994854789946 186.5 L277.77052965936986 186.5 L278.03111077084026 186.5 L278.2916918823106 186.5 L278.552272993781 186.5 L278.8128541052514 186.5 L279.0734352167218 186.5 L279.3340163281922 186.5 L279.5945974396626 186.5 L279.855178551133 186.5 L280.1157600508999 186.5 L280.3763415506668 186.5 L280.63692305043367 186.5 L280.89750455020055 186.5 L281.15808604996744 186.5 L281.4186675497343 186.5 L281.6792490495012 186.5 L281.9398305492681 186.5 L282.200412049035 186.5 L282.4609935488018 186.5 L282.7215750485687 186.5 L282.9821565483356 186.5 L283.24273804810247 186.5 L283.5033193537211 186.5 L283.76390065933975 186.5 L284.0244819649584 186.5 L284.28506327057704 186.5 L284.5456445761957 186.5 L284.8062258818143 186.5 L285.06680718743297 186.5 L285.3273884930516 186.5 L285.58796979867026 186.5 L285.84855115282596 186.5 L286.10913250698167 186.5 L286.36971386113737 186.5 L286.630295215293 16.954545454545467 L286.8908765694487 16.954545454545467 L287.1514579236044 16.954545454545467 L287.41203927776013 16.954545454545467 L287.67262063191583 16.954545454545467 L287.9332019375345 16.954545454545467 L288.1937832431531 16.954545454545467 L288.45436454877176 16.954545454545467 L288.7149458543904 16.954545454545467 L288.97552716000905 16.954545454545467 L289.2361084656277 16.954545454545467 L289.49668977124634 16.954545454545467 L289.757271076865 16.954545454545467 L290.0178523824836 16.954545454545467 L290.2784338822505 16.954545454545467 L290.5390153820174 16.954545454545467 L290.7995968817842 16.954545454545467 L291.0601783815511 16.954545454545467 L291.320759881318 16.954545454545467 L291.5813413810849 16.954545454545467 L291.84192288085177 16.954545454545467 L292.10250438061865 16.954545454545467 L292.36308588038554 16.954545454545467 L292.6236673801524 16.954545454545467 L292.8842488799193 16.954545454545467 L293.1448299913897 16.954545454545467 L293.4054111028601 16.954545454545467 L293.6659922143305 16.954545454545467 L293.9265733258009 16.954545454545467 L294.1871544372713 16.954545454545467 L294.4477355487417 16.954545454545467 L294.70831666021206 16.954545454545467 L294.96889777168246 16.954545454545467 L295.22947888315286 16.954545454545467 L295.49005999462327 16.954545454545467 L295.75064110609367 16.954545454545467 L296.01122221756407 16.954545454545467 L296.27180332903447 16.954545454545467 L296.53238444050487 16.954545454545467 L296.79296555197527 16.954545454545467 L297.0535466634457 16.954545454545467 L297.3141277749161 16.954545454545467 L297.5747088863865 16.954545454545467 L297.8352899978569 16.954545454545467 L298.0958711093273 16.954545454545467 L298.3564522207977 16.954545454545467 L298.6170333322681 16.954545454545467 L298.8776144437384 16.954545454545467 L299.1381955552088 16.954545454545467 L299.3987766666792 16.954545454545467 L299.6593585547426 16.954545454545467 L299.919939666213 16.954545454545467 L300.1805207776834 16.954545454545467 L300.4411018891538 16.954545454545467 L300.7016830006242 16.954545454545467 L300.9622641120946 16.954545454545467 L301.222845223565 16.954545454545467 L301.4834263350354 16.954545454545467 L301.7440074465058 16.954545454545467 L302.0045885579762 16.954545454545467 L302.2651696694466 16.954545454545467 L302.52575078091695 16.954545454545467 L302.78633189238735 16.954545454545467 L303.04691300385775 16.954545454545467 L303.30749411532815 16.954545454545467 L303.56807522679856 16.954545454545467 L303.82865633826896 16.954545454545467 L304.08923744973936 16.954545454545467 L304.34981856120976 16.954545454545467 L304.61039967268016 16.954545454545467 L304.87098078415056 16.954545454545467 L305.13156189562096 16.954545454545467 L305.39214300709136 16.954545454545467 L305.65272411856176 16.954545454545467 L305.91330523003217 16.954545454545467 L306.17388634150257 16.954545454545467 L306.43446745297297 16.954545454545467 L306.6950485644433 16.954545454545467 L306.9556296759137 16.954545454545467 L307.2162107873841 16.954545454545467 L307.4767918988545 16.954545454545467 L307.7373730103249 16.954545454545467 L307.9979541217953 16.954545454545467 L308.2585352332657 16.954545454545467 L308.5191163447361 16.954545454545467 L308.7796974562065 16.954545454545467 L309.0402785676769 16.954545454545467 L309.3008596791473 16.954545454545467 L309.5614407906177 16.954545454545467 L309.8220219020881 16.954545454545467 L310.0826030135585 16.954545454545467 L310.3431841250289 16.954545454545467 L310.60376523649927 16.954545454545467 L310.8643463479697 16.954545454545467 L311.1249274594401 16.954545454545467 L311.3855085709105 16.954545454545467 L311.6460896823809 16.954545454545467 L311.9066707938513 16.954545454545467 L312.1672519053217 16.954545454545467 L312.4278330167921 16.954545454545467 L312.6884141282625 16.954545454545467 L312.9489952397329 16.954545454545467 L313.2095763512033 16.954545454545467 L313.4701574626737 16.954545454545467 L313.7307385741441 16.954545454545467 L313.9913196856145 16.954545454545467 L314.2519007970849 16.954545454545467 L314.5124819085553 16.954545454545467 L314.77306302002563 16.954545454545467 L315.03364413149603 16.954545454545467 L315.29422524296643 16.954545454545467 L315.55480635443683 16.954545454545467 L315.81538746590724 16.954545454545467 L316.07596857737764 16.954545454545467 L316.33654968884804 16.954545454545467 L316.59713080031844 16.954545454545467 L316.85771191178884 16.954545454545467 L317.11829302325924 16.954545454545467 L317.37887413472964 16.954545454545467 L317.63945524620004 16.954545454545467 L317.90003635767044 16.954545454545467 L318.16061746914085 16.954545454545467 L318.4211985806112 16.954545454545467 L318.6817796920816 16.954545454545467 L318.942360803552 16.954545454545467 L319.2029419150224 16.954545454545467 L319.4635230264928 16.954545454545467 L319.7241041379632 16.954545454545467 L319.9846852494336 16.954545454545467 L320.245266360904 16.954545454545467 L320.5058474723744 16.954545454545467 L320.7664285838448 16.954545454545467 L321.0270096953152 16.954545454545467 L321.2875908067856 16.954545454545467 L321.548171918256 16.954545454545467 L321.8087530297264 16.954545454545467 L322.0693341411968 16.954545454545467 L322.3299152526672 16.954545454545467 L322.5904963641376 16.954545454545467 L322.85107747560795 16.954545454545467 L323.11165858707835 16.954545454545467 L323.37223969854875 16.954545454545467 L323.63282081001915 16.954545454545467 L323.89340192148956 16.954545454545467 L324.15398303295996 16.954545454545467 L324.41456414443036 16.954545454545467 L324.67514525590076 16.954545454545467 L324.93572636737116 16.954545454545467 L325.19630747884156 16.954545454545467 L325.45688859031196 16.954545454545467 L325.71746970178236 16.954545454545467 L325.97805081325276 16.954545454545467 L326.2386319247231 16.954545454545467 L326.4992130361935 16.954545454545467 L326.7597941476639 16.954545454545467 L327.0203752591343 16.954545454545467 L327.2809563706047 16.954545454545467 L327.5415374820751 16.954545454545467 L327.8021185935455 16.954545454545467 L328.0626997050159 16.954545454545467 L328.3232808164863 16.954545454545467 L328.5838619279567 16.954545454545467 L328.8444430394271 16.954545454545467 L329.1050241508975 16.954545454545467 L329.3656052623679 16.954545454545467 L329.6261863738383 16.954545454545467 L329.8867674853087 16.954545454545467 L330.1473485967791 16.954545454545467 L330.4079297082495 16.954545454545467 L330.66851081971987 16.954545454545467 L330.92909193119027 16.954545454545467 L331.1896730426607 16.954545454545467 L331.4502541541311 16.954545454545467 L331.7108352656015 16.954545454545467 L331.9714163770719 16.954545454545467 L332.2319974885423 16.954545454545467 L332.4925786000127 16.954545454545467 L332.7531597114831 16.954545454545467 L333.0137408229535 16.954545454545467 L333.2743219344239 16.954545454545467 L333.5349030458943 16.954545454545467 L333.7954841573647 16.954545454545467 L334.0560652688351 16.954545454545467 L334.31664638030543 16.954545454545467 L334.57722749177583 16.954545454545467 L334.83780860324623 16.954545454545467 L335.09838971471663 16.954545454545467 L335.35897082618703 16.954545454545467 L335.61955193765743 16.954545454545467 L335.88013304912783 16.954545454545467 L336.14071416059824 16.954545454545467 L336.40129527206864 16.954545454545467 L336.66187638353904 16.954545454545467 L336.92245749500944 16.954545454545467 L337.18303860647984 16.954545454545467 L337.44361971795024 16.954545454545467 L337.70420082942064 16.954545454545467 L337.96478194089104 16.954545454545467 L338.22536305236144 16.954545454545467 L338.48594416383185 16.954545454545467 L338.74652838167407 16.954545454545467 L339.00710949314447 16.954545454545467 L339.26769060461487 16.954545454545467 L339.52827171608527 16.954545454545467 L339.7888528275557 16.954545454545467 L340.0494339390261 16.954545454545467 L340.3100150504965 16.954545454545467 L340.5705961619669 16.954545454545467 L340.8311772734373 16.954545454545467 L341.0917583849077 16.954545454545467 L341.3523394963781 16.954545454545467 L341.6129206078485 16.954545454545467 L341.8735017193189 16.954545454545467 L342.1340828307892 16.954545454545467 L342.3946639422596 16.954545454545467 L342.65524505373 16.954545454545467 L342.91582616520043 16.954545454545467 L343.17640727667083 16.954545454545467 L343.43698838814123 16.954545454545467 L343.69756949961163 16.954545454545467 L343.95815061108203 16.954545454545467 L344.21873172255243 16.954545454545467 L344.47931283402283 16.954545454545467 L344.73989394549324 16.954545454545467 L345.00047505696364 16.954545454545467 L345.26105616843404 16.954545454545467 L345.52163727990444 16.954545454545467 L345.78221839137484 16.954545454545467 L346.04279950284524 16.954545454545467 L346.30338061431564 16.954545454545467 L346.563961725786 16.954545454545467 L346.8245428372564 16.954545454545467 L347.0851239487268 16.954545454545467 L347.3457050601972 16.954545454545467 L347.6062861716676 16.954545454545467 L347.866867283138 16.954545454545467 L348.1274483946084 16.954545454545467 L348.3880295060788 16.954545454545467 L348.6486106175492 16.954545454545467 L348.9091917290196 16.954545454545467 L349.16977284049 16.954545454545467 L349.4303539519604 16.954545454545467 L349.6909350634308 16.954545454545467 L349.9515161749012 16.954545454545467 L350.21209728637155 16.954545454545467 L350.47267839784195 16.954545454545467 L350.73325950931235 16.954545454545467 L350.99384062078275 16.954545454545467 L351.25442173225315 16.954545454545467 L351.51500284372355 16.954545454545467 L351.77558395519395 16.954545454545467 L352.03616506666435 16.954545454545467 L352.29674617813475 16.954545454545467 L352.55732728960515 16.954545454545467 L352.81790840107556 16.954545454545467 L353.07848951254596 16.954545454545467 L353.33907062401636 16.954545454545467 L353.59965173548676 16.954545454545467 L353.86023284695716 16.954545454545467 L354.12081395842756 16.954545454545467 L354.38139506989796 16.954545454545467 L354.64197618136836 16.954545454545467 L354.9025572928387 16.954545454545467 L355.1631384043091 16.954545454545467 L355.4237195157795 16.954545454545467 L355.6843006272499 16.954545454545467 L355.9448817387203 16.954545454545467 L356.2054628501907 16.954545454545467 L356.4660439616611 16.954545454545467 L356.7266250731315 16.954545454545467 L356.9872061846019 16.954545454545467 L357.2477872960723 16.954545454545467 L357.5083684075427 16.954545454545467 L357.76894951901306 16.954545454545467 L358.02953063048346 16.954545454545467 L358.29011174195387 16.954545454545467 L358.55069285342427 16.954545454545467 L358.81127396489467 16.954545454545467 L359.07185507636507 16.954545454545467 L359.33243618783547 16.954545454545467 L359.59301729930587 16.954545454545467 L359.85359841077627 16.954545454545467 L360.1141795222467 16.954545454545467 L360.3747606337171 16.954545454545467 L360.6353417451875 16.954545454545467 L360.8959228566579 16.954545454545467 L361.1565039681283 16.954545454545467 L361.4170850795987 16.954545454545467 L361.6776661910691 16.954545454545467 L361.9382473025395 16.954545454545467 L362.1988284140099 16.954545454545467 L362.4594095254803 16.954545454545467 L362.7199906369506 16.954545454545467 L362.980571748421 16.954545454545467 L363.24115285989143 16.954545454545467 L363.50173397136183 16.954545454545467 L363.76231508283223 16.954545454545467 L364.02289619430263 16.954545454545467 L364.28347730577303 16.954545454545467 L364.54405841724343 16.954545454545467 L364.80463952871384 16.954545454545467 L365.06522064018424 16.954545454545467 L365.32580175165464 16.954545454545467 L365.58638286312504 16.954545454545467 L365.8469639745954 16.954545454545467 L366.1075450860658 16.954545454545467 L366.3681261975362 16.954545454545467 L366.6287073090066 16.954545454545467 L366.889288420477 16.954545454545467 L367.1498695319474 16.954545454545467 L367.4104506434178 16.954545454545467 L367.6710317548882 16.954545454545467 L367.9316128663586 16.954545454545467 L368.192193977829 16.954545454545467 L368.4527750892994 16.954545454545467 L368.7133562007698 16.954545454545467 L368.9739373122402 16.954545454545467 L369.2345184237106 16.954545454545467 L369.495099535181 16.954545454545467 L369.7556806466514 16.954545454545467 L370.0162617581218 16.954545454545467 L370.2768428695922 16.954545454545467 L370.5374239810626 16.954545454545467 L370.79800509253295 16.954545454545467 L371.05858620400335 16.954545454545467 L371.31916731547375 16.954545454545467 L371.57974842694415 16.954545454545467 L371.84032953841455 16.954545454545467 L372.10091064988495 16.954545454545467 L372.36149176135535 16.954545454545467 L372.62207287282575 16.954545454545467 L372.88265398429616 16.954545454545467 L373.14323509576656 16.954545454545467 L373.40381620723696 16.954545454545467 L373.6643973187073 16.954545454545467 L373.9249784301777 16.954545454545467 L374.1855595416481 16.954545454545467 L374.4461406531185 16.954545454545467 L374.7067217645889 16.954545454545467 L374.9673028760593 16.954545454545467 L375.2278839875297 16.954545454545467 L375.4884650990001 16.954545454545467 L375.7490462104705 16.954545454545467 L376.0096273219409 16.954545454545467 L376.2702084334113 16.954545454545467 L376.5307895448817 16.954545454545467 L376.7913706563521 16.954545454545467 L377.0519517678225 16.954545454545467 L377.3125328792929 16.954545454545467 L377.5731139907633 16.954545454545467 L377.8336951022337 16.954545454545467 L378.0942762137041 16.954545454545467 L378.3548573251745 16.954545454545467 L378.61543843664487 16.954545454545467 L378.87601954811527 16.954545454545467 L379.13660065958567 16.954545454545467 L379.39718177105607 16.954545454545467 L379.65776288252647 16.954545454545467 L379.91834399399687 16.954545454545467 L380.1789251054673 16.954545454545467 L380.4395062169377 16.954545454545467 L380.7000873284081 16.954545454545467 L380.9606684398785 16.954545454545467 L381.2212495513489 16.954545454545467 L381.4818306628193 16.954545454545467 L381.7424117742896 16.954545454545467 L382.00299288576 16.954545454545467 L382.2635739972304 16.954545454545467 L382.5241551087008 16.954545454545467 L382.7847362201712 16.954545454545467 L383.0453173316416 16.954545454545467 L383.305898443112 16.954545454545467 L383.56647955458243 16.954545454545467 L383.82706066605283 16.954545454545467 L384.08764177752323 16.954545454545467 L384.34822288899363 16.954545454545467 L384.60880400046403 16.954545454545467 L384.86938511193443 16.954545454545467 L385.12996622340484 16.954545454545467 L385.39054733487524 16.954545454545467 L385.65112844634564 16.954545454545467 L385.91170955781604 16.954545454545467 L386.17229066928644 16.954545454545467 L386.43287178075684 16.954545454545467 L386.6934528922272 16.954545454545467 L386.9540340036976 16.954545454545467 L387.214615115168 16.954545454545467 L387.4751962266384 16.954545454545467 L387.7357773381088 16.954545454545467 L387.9963584495792 16.954545454545467 L388.2569395610496 16.954545454545467 L388.51752067252 16.954545454545467 L388.7781017839904 16.954545454545467 L389.0386828954608 16.954545454545467 L389.2992640069312 16.954545454545467 L389.55984511840154 16.954545454545467 L389.82042622987194 16.954545454545467 L390.08100734134234 16.954545454545467 L390.34158845281274 16.954545454545467 L390.60216956428314 16.954545454545467 L390.86275067575355 16.954545454545467 L391.1233379999677 16.954545454545467 L391.38392532418186 16.954545454545467 L391.644512648396 16.954545454545467 L391.9050999726102 16.954545454545467 L392.16568729682433 16.954545454545467 L392.4262746210385 16.954545454545467 L392.68686194525264 16.954545454545467 L392.9474492694668 16.954545454545467 L393.20803659368096 16.954545454545467 L393.4686239178951 16.954545454545467 L393.7292112421093 16.954545454545467 L393.98979856632343 16.954545454545467 L394.2503858905376 16.954545454545467 L394.51097321475174 16.954545454545467 L394.7715605389659 16.954545454545467 L395.03214786318006 16.954545454545467 L395.2927351873942 16.954545454545467 L395.55332251160837 16.954545454545467 L395.8139098358225 16.954545454545467 L396.0744971600367 16.954545454545467 L396.33508448425084 16.954545454545467 L396.595671808465 16.954545454545467 L396.85625913267916 16.954545454545467 L397.1168464568933 16.954545454545467 L397.37743378110747 16.954545454545467 L397.6380211053216 16.954545454545467 L397.8986084295358 16.954545454545467 L398.15919575374994 16.954545454545467 L398.4197830779641 16.954545454545467 L398.68037040217826 16.954545454545467 L398.9409577263924 16.954545454545467 L399.20154505060657 16.954545454545467 L399.4621323748207 16.954545454545467 L399.7227196990349 16.954545454545467 L399.98330702324904 16.954545454545467 L400.2438943474632 16.954545454545467 L400.50448167167735 16.954545454545467 L400.7650689958915 16.954545454545467 L401.02565632010567 16.954545454545467 L401.2862436443198 16.954545454545467 L401.546830968534 16.954545454545467 L401.80741829274814 16.954545454545467 L402.0680056169623 16.954545454545467 L402.32859294117645 16.954545454545467 L402.5891802653906 16.954545454545467 L402.84976758960477 16.954545454545467 L403.1103549138189 16.954545454545467 L403.3709422380331 16.954545454545467 L403.63152956224724 16.954545454545467 L403.8921168864614 16.954545454545467 L404.15270421067555 16.954545454545467 L404.4132915348897 16.954545454545467 L404.67387885910387 16.954545454545467 L404.93446618331797 16.954545454545467 L405.1950535075321 16.954545454545467 L405.4556408317463 16.954545454545467 L405.71622815596044 16.954545454545467 L405.9768154801746 16.954545454545467 L406.23740280438875 16.954545454545467 L406.4979901286029 16.954545454545467 L406.75857745281706 16.954545454545467 L407.0191647770312 16.954545454545467 L407.2797521012454 16.954545454545467 L407.54033942545954 16.954545454545467 L407.8009267496737 16.954545454545467 L408.06151407388785 16.954545454545467 L408.322101398102 16.954545454545467 L408.58268872231616 16.954545454545467 L408.8432760465303 16.954545454545467 L409.1038633707445 16.954545454545467 L409.36445069495863 16.954545454545467 L409.6250380191728 16.954545454545467 L409.88562534338695 16.954545454545467 L410.1462126676011 16.954545454545467 L410.40679999181526 16.954545454545467 L410.6673873160294 16.954545454545467 L410.9279746402436 16.954545454545467 L411.18856196445773 16.954545454545467 L411.4491492886719 16.954545454545467 L411.70973661288605 16.954545454545467 L411.9703239371002 16.954545454545467 L412.23091126131436 16.954545454545467 L412.4914985855285 16.954545454545467 L412.7520859097427 16.954545454545467 L413.01267323395683 16.954545454545467 L413.273260558171 16.954545454545467 L413.53384788238515 16.954545454545467 L413.7944352065993 16.954545454545467 L414.05502253081346 16.954545454545467 L414.3156098550276 16.954545454545467 L414.5761971792418 16.954545454545467 L414.8367845034559 16.954545454545467 L415.09737182767003 16.954545454545467 L415.3579591518842 16.954545454545467 L415.61854647609835 16.954545454545467 L415.8791338003125 16.954545454545467 L416.13972112452666 16.954545454545467 L416.4003084487408 16.954545454545467 L416.660895772955 16.954545454545467 L416.92148309716913 16.954545454545467 L417.1820704213833 16.954545454545467 L417.44265774559744 16.954545454545467 L417.7032450698116 16.954545454545467 L417.96383239402576 16.954545454545467 L418.2244197182399 16.954545454545467 L418.4850070424541 16.954545454545467 L418.74559436666823 16.954545454545467 L419.0061816908824 16.954545454545467 L419.26676901509654 16.954545454545467 L419.5273563393107 16.954545454545467 L419.78794366352486 16.954545454545467 L420.048530987739 16.954545454545467 L420.30911831195317 16.954545454545467 L420.5697056361673 16.954545454545467 L420.8302929603815 16.954545454545467 L421.09088028459564 16.954545454545467 L421.3514676088098 16.954545454545467 L421.61205493302396 16.954545454545467 L421.8726422572381 16.954545454545467 L422.13322958145227 16.954545454545467 L422.3938169056664 16.954545454545467 L422.6544042298806 16.954545454545467 L422.91499155409474 16.954545454545467 L423.1755788783089 16.954545454545467 L423.43616620252305 16.954545454545467 L423.6967535267372 16.954545454545467 L423.95734085095137 16.954545454545467 L424.2179281751655 16.954545454545467 L424.4785154993797 16.954545454545467 L424.73910282359384 16.954545454545467 L424.999690147808 16.954545454545467 L425.26027747202215 16.954545454545467 L425.5208647962363 16.954545454545467 L425.78145212045047 16.954545454545467 L426.0420394446646 16.954545454545467 L426.3026267688788 16.954545454545467 L426.56321409309294 16.954545454545467 L426.8238014173071 16.954545454545467 L427.08438874152125 16.954545454545467 L427.3449760657354 16.954545454545467 L427.60556338994957 16.954545454545467 L427.8661507141637 16.954545454545467 L428.1267380383779 16.954545454545467 L428.38732536259204 16.954545454545467 L428.6479126868062 16.954545454545467 L428.90850001102035 16.954545454545467 L429.1690873352345 16.954545454545467 L429.42967465944866 16.954545454545467 L429.6902619836628 16.954545454545467 L429.950849307877 16.954545454545467 L430.21143663209114 16.954545454545467 L430.4720239563053 16.954545454545467 L430.73261128051945 16.954545454545467 L430.9931986047336 16.954545454545467 L431.25378592894776 16.954545454545467 L431.5143732531619 16.954545454545467 L431.7749605773761 16.954545454545467 L432.03554790159023 16.954545454545467 L432.2961352258044 16.954545454545467 L432.55672255001855 16.954545454545467 L432.8173098742327 16.954545454545467 L433.07789719844686 16.954545454545467 L433.338484522661 16.954545454545467 L433.5990718468752 16.954545454545467 L433.85965917108933 16.954545454545467 L434.1202464953035 16.954545454545467 L434.38083381951765 16.954545454545467 L434.6414211437318 16.954545454545467 L434.90200846794596 16.954545454545467 L435.1625957921601 16.954545454545467 L435.4231831163743 16.954545454545467 L435.68377044058843 16.954545454545467 L435.9443577648026 16.954545454545467 L436.20494508901675 16.954545454545467 L436.4655324132309 16.954545454545467 L436.72611973744506 16.954545454545467 L436.9867070616592 16.954545454545467 L437.2472943858734 16.954545454545467 L437.50788171008753 16.954545454545467 L437.7684690343017 16.954545454545467 L438.0290563585158 16.954545454545467 L438.28964368272995 16.954545454545467 L438.5502310069441 16.954545454545467 L438.81081833115826 16.954545454545467 L439.0714056553724 16.954545454545467 L439.3319929795866 16.954545454545467 L439.59258030380073 16.954545454545467 L439.8531676280149 16.954545454545467 L440.11375495222904 16.954545454545467 L440.3743422764432 16.954545454545467 L440.63492960065736 16.954545454545467 L440.8955169248715 16.954545454545467 L441.1561042490857 16.954545454545467 L441.41669157329983 16.954545454545467 L441.677278897514 16.954545454545467 L441.93786622172814 16.954545454545467 L442.1984535459423 16.954545454545467 L442.45904087015646 16.954545454545467 L442.7196281943706 16.954545454545467 L442.98021551858477 16.954545454545467 L443.2408028427989 16.954545454545467 L443.5013901670131 16.954545454545467 L443.76197749122724 16.954545454545467 L444.0225648154414 16.954545454545467 L444.28315213965556 16.954545454545467 L444.5437394638697 16.954545454545467 L444.80432678808387 16.954545454545467 L445.064914112298 16.954545454545467 L445.3255014365122 16.954545454545467 L445.58608876072634 16.954545454545467 L445.84667608494044 16.954545454545467 L446.1072634091546 16.954545454545467 L446.36785073336875 16.954545454545467 L446.6284380575829 16.954545454545467 L446.88902538179707 16.954545454545467 L447.1496127060112 16.954545454545467 L447.4102000302254 16.954545454545467 L447.67078735443954 16.954545454545467 L447.9313746786537 16.954545454545467 L448.19196200286785 16.954545454545467 L448.452549327082 16.954545454545467 L448.71313665129617 16.954545454545467 L448.9737239755103 16.954545454545467 L449.2343112997245 16.954545454545467 L449.49489862393864 16.954545454545467 L449.7554859481528 16.954545454545467 L450.01607327236695 16.954545454545467 L450.2766605965811 16.954545454545467 L450.53724792079527 16.954545454545467 L450.7978352450094 16.954545454545467 L451.0584225692236 16.954545454545467 L451.31900989343774 16.954545454545467 L451.5795972176519 16.954545454545467 L451.84018454186605 16.954545454545467 L452.1007718660802 16.954545454545467 L452.36135919029437 16.954545454545467 L452.6219465145085 16.954545454545467 L452.8825338387227 16.954545454545467 L453.14312116293684 16.954545454545467 L453.403708487151 16.954545454545467 L453.66429581136515 16.954545454545467 L453.9248831355793 16.954545454545467 L454.18547045979346 16.954545454545467 L454.4460577840076 16.954545454545467 L454.7066451082218 16.954545454545467 L454.96723243243594 16.954545454545467 L455.2278197566501 16.954545454545467 L455.48840708086425 16.954545454545467 L455.7489944050784 16.954545454545467 L456.00958172929256 16.954545454545467 L456.2701690535067 16.954545454545467 L456.5307563777209 16.954545454545467 L456.79134370193503 16.954545454545467 L457.0519310261492 16.954545454545467 L457.31251835036335 16.954545454545467 L457.5731056745775 16.954545454545467 L457.83369299879166 16.954545454545467 L458.0942803230058 16.954545454545467 L458.35486764722 16.954545454545467 L458.61545497143413 16.954545454545467 L458.8760422956483 16.954545454545467 L459.13662961986245 16.954545454545467 L459.3972169440766 16.954545454545467 L459.65780426829076 16.954545454545467 L459.9183915925049 16.954545454545467 L460.1789789167191 16.954545454545467 L460.43956624093323 16.954545454545467 L460.7001535651474 16.954545454545467 L460.96074088936155 16.954545454545467 L461.2213282135757 16.954545454545467 L461.48191553778986 16.954545454545467 L461.742502862004 16.954545454545467 L462.0030901862182 16.954545454545467 L462.26367751043233 16.954545454545467 L462.5242648346465 16.954545454545467 L462.78485215886064 16.954545454545467 L463.0454394830748 16.954545454545467 L463.30602680728896 16.954545454545467 L463.5666141315031 16.954545454545467 L463.8272014557173 16.954545454545467 L464.08778877993143 16.954545454545467 L464.3483761041456 16.954545454545467 L464.60896342835974 16.954545454545467 L464.8695507525739 16.954545454545467 L465.13013807678806 16.954545454545467 L465.3907254010022 16.954545454545467 L465.65131272521637 16.954545454545467 L465.9119000494305 16.954545454545467 L466.1724873736447 16.954545454545467 L466.43307469785884 16.954545454545467 L466.693662022073 16.954545454545467 L466.95424934628716 16.954545454545467 L467.2148366705013 16.954545454545467 L467.47542399471547 16.954545454545467 L467.7360113189296 16.954545454545467 L467.9965986431438 16.954545454545467 L468.25718596735794 16.954545454545467 L468.5177732915721 16.954545454545467 L468.77836061578626 16.954545454545467 L469.0389479400004 16.954545454545467 L469.2995352642145 16.954545454545467 L469.56012258842867 16.954545454545467 L469.8207099126428 16.954545454545467 L470.081297236857 16.954545454545467 L470.34188456107114 16.954545454545467 L470.6024718852853 16.954545454545467 L470.86305920949945 16.954545454545467 L471.1236465337136 16.954545454545467 L471.38423385792777 16.954545454545467 L471.6448211821419 16.954545454545467 L471.9054085063561 16.954545454545467 L472.16599583057024 16.954545454545467 L472.4265831547844 16.954545454545467 L472.68717047899855 16.954545454545467 L472.9477578032127 16.954545454545467 L473.20834512742687 16.954545454545467 L473.468932451641 16.954545454545467 L473.7295197758552 16.954545454545467 L473.99010710006934 16.954545454545467 L474.2506944242835 16.954545454545467 L474.51128174849765 16.954545454545467 L474.7718690727118 16.954545454545467 L475.03245639692597 16.954545454545467 L475.2930437211401 16.954545454545467 L475.5536310453543 16.954545454545467 L475.81421836956844 16.954545454545467 L476.0748056937826 16.954545454545467 L476.33539301799675 16.954545454545467 L476.5959803422109 16.954545454545467 L476.85656766642506 16.954545454545467 L477.11715499063916 16.954545454545467 L477.3777423148533 16.954545454545467 L477.6383296390675 16.954545454545467 L477.89891696328164 16.954545454545467 L478.1595042874958 16.954545454545467 L478.42009161170995 16.954545454545467 L478.6806789359241 16.954545454545467 L478.94126626013826 16.954545454545467 L479.2018535843524 16.954545454545467 L479.4624409085666 16.954545454545467 L479.72302823278073 16.954545454545467 L479.9836155569949 16.954545454545467 L480.24420288120905 16.954545454545467 L480.5047902054232 16.954545454545467 L480.76537752963736 16.954545454545467 L481.0259648538515 16.954545454545467 L481.2865521780657 16.954545454545467 L481.54713950227983 16.954545454545467 L481.807726826494 16.954545454545467 L482.06831415070815 16.954545454545467 L482.3289014749223 16.954545454545467 L482.58948879913646 16.954545454545467 L482.8500761233506 16.954545454545467 L483.1106634475648 16.954545454545467 L483.37125077177893 16.954545454545467 L483.6318380959931 16.954545454545467 L483.89242542020725 16.954545454545467 L484.1530127444214 16.954545454545467 L484.41360006863556 16.954545454545467 L484.6741873928497 16.954545454545467 L484.9347747170639 16.954545454545467 L485.19536204127803 16.954545454545467 L485.4559493654922 16.954545454545467 L485.71653668970634 16.954545454545467 L485.9771240139205 16.954545454545467 L486.23771133813466 16.954545454545467 L486.4982986623488 16.954545454545467 L486.758885986563 16.954545454545467 L487.01947331077713 16.954545454545467 L487.2800606349913 16.954545454545467 L487.54064795920544 16.954545454545467 L487.8012352834196 16.954545454545467 L488.06182260763376 16.954545454545467 L488.3224099318479 16.954545454545467 L488.5829972560621 16.954545454545467 L488.84358458027623 16.954545454545467 L489.1041719044904 16.954545454545467 L489.36475922870454 16.954545454545467 L489.6253465529187 16.954545454545467 L489.88593387713286 16.954545454545467 L490.146521201347 16.954545454545467 L490.40710852556117 16.954545454545467 L490.6676958497753 16.954545454545467 L490.9282831739895 16.954545454545467 L491.18887049820364 16.954545454545467 L491.4494578224178 16.954545454545467 L491.71004514663196 16.954545454545467 L491.9706324708461 16.954545454545467 L492.23121979506027 16.954545454545467 L492.4918071192744 16.954545454545467 L492.7523944434886 16.954545454545467 L493.01298176770274 16.954545454545467 L493.2735690919169 16.954545454545467 L493.53415641613105 16.954545454545467 L493.7947437403452 16.954545454545467 L494.05533106455937 16.954545454545467 L494.3159183887735 16.954545454545467 L494.5765057129877 16.954545454545467 L494.83709303720184 16.954545454545467 L495.0976679359285 16.954545454545467 L495.35825526014264 16.954545454545467 L495.6188425843568 16.954545454545467 L495.87942990857096 16.954545454545467 L496.1400172327851 16.954545454545467 L496.40060455699927 16.954545454545467 L496.6611918812134 16.954545454545467 L496.9217792054276 16.954545454545467 L497.18236652964174 16.954545454545467 L497.4429538538559 16.954545454545467 L497.70354117807005 16.954545454545467 L497.9641285022842 16.954545454545467 L498.22471582649837 16.954545454545467 L498.4853031507125 16.954545454545467 L498.7458904749267 16.954545454545467 L499.0064777991408 16.954545454545467 L499.26706512335494 16.954545454545467 L499.5276524475691 16.954545454545467 L499.78823977178325 16.954545454545467 L500.0488270959974 16.954545454545467 L500.30941442021157 16.954545454545467 L500.5700017444257 16.954545454545467 L500.8305890686399 16.954545454545467 L501.09117639285404 16.954545454545467 L501.3517637170682 16.954545454545467 L501.61235104128235 16.954545454545467 L501.8729383654965 16.954545454545467 L502.13352568971067 16.954545454545467 L502.3941130139248 16.954545454545467 L502.654700338139 16.954545454545467 L502.91528766235314 16.954545454545467 L503.1758749865673 16.954545454545467 L503.43646231078145 16.954545454545467 L503.6970496349956 16.954545454545467 L503.95763695920976 16.954545454545467 L504.2182242834239 16.954545454545467 L504.4788116076381 16.954545454545467 L504.73939893185224 16.954545454545467 L504.9999862560664 16.954545454545467 L505.26057358028055 16.954545454545467 L505.5211609044947 16.954545454545467 L505.78174822870886 16.954545454545467 L506.042335552923 16.954545454545467 L506.3029228771372 16.954545454545467 L506.56351020135133 16.954545454545467 L506.82409752556543 16.954545454545467 L507.0846848497796 16.954545454545467 L507.34527217399375 16.954545454545467 L507.6058594982079 16.954545454545467 L507.86644682242206 16.954545454545467 L508.1270341466362 16.954545454545467 L508.3876214708504 16.954545454545467 L508.64820879506453 16.954545454545467 L508.9087961192787 16.954545454545467 L509.16938344349285 16.954545454545467 L509.429970767707 16.954545454545467 L509.69055809192116 16.954545454545467 L509.9511454161353 16.954545454545467 L510.2117327403495 16.954545454545467 L510.47232006456363 16.954545454545467 L510.7329073887778 16.954545454545467 L510.99349471299195 16.954545454545467 L511.2540820372061 16.954545454545467 L511.51466936142026 16.954545454545467 L511.7752566856344 16.954545454545467 L512.0358440098486 16.954545454545467 L512.2964313340627 16.954545454545467 L512.5570186582769 16.954545454545467 L512.817605982491 16.954545454545467 L513.0781933067052 16.954545454545467 L513.3387806309194 16.954545454545467 L513.5993679551335 16.954545454545467 L513.8599552793477 16.954545454545467 L514.1205426035618 16.954545454545467 L514.381129927776 16.954545454545467 L514.6417172519901 16.954545454545467 L514.9023045762043 16.954545454545467 L515.1628919004185 16.954545454545467 L515.4234792246326 16.954545454545467 L515.6840665488468 16.954545454545467 L515.9446538730609 16.954545454545467 L516.2052411972751 16.954545454545467 L516.4658285214892 16.954545454545467 L516.7264158457034 16.954545454545467 L516.9870031699176 16.954545454545467 L517.2475904941317 16.954545454545467 L517.5081778183459 16.954545454545467 L517.76876514256 16.954545454545467 L518.0293524667742 16.954545454545467 L518.2899397909883 16.954545454545467 L518.5505271152025 16.954545454545467 L518.8111144394167 16.954545454545467 L519.0717017636308 16.954545454545467 L519.332289087845 16.954545454545467 L519.5928764120591 16.954545454545467 L519.8534637362733 16.954545454545467 L520.1140510604874 16.954545454545467 L520.3746383847016 16.954545454545467 L520.6352257089158 16.954545454545467 L520.8958130331299 16.954545454545467 L521.1564003573441 16.954545454545467 L521.4169876815582 16.954545454545467 L521.6775750057724 16.954545454545467 L521.9381623299865 16.954545454545467 L522.1987496542007 16.954545454545467 L522.4593369784149 16.954545454545467 L522.719924302629 16.954545454545467 L522.9805116268432 16.954545454545467 L523.2410989510573 16.954545454545467 L523.5016862752715 16.954545454545467 L523.7622735994856 16.954545454545467 L524.0228609236998 16.954545454545467 L524.283448247914 16.954545454545467 L524.5440355721281 16.954545454545467 L524.8046228963423 16.954545454545467 L525.0652102205564 16.954545454545467 L525.3257975447706 16.954545454545467 L525.5863848689847 16.954545454545467 L525.8469721931989 16.954545454545467 L526.107559517413 16.954545454545467 L526.3681468416272 16.954545454545467 L526.6287341658414 16.954545454545467 L526.8893214900555 16.954545454545467 L527.1499088142697 16.954545454545467 L527.4104961384838 16.954545454545467 L527.671083462698 16.954545454545467 L527.9316707869122 16.954545454545467 L528.1922581111263 16.954545454545467 L528.4528454353405 16.954545454545467 L528.7134327595546 16.954545454545467 L528.9740200837688 16.954545454545467 L529.2346074079829 16.954545454545467 L529.4951947321971 16.954545454545467 L529.7557820564112 16.954545454545467 L530.0163693806254 16.954545454545467 L530.2769567048394 16.954545454545467 L530.5375440290536 16.954545454545467 L530.7981313532678 16.954545454545467 L531.0587186774819 16.954545454545467 L531.3193060016961 16.954545454545467 L531.5798933259102 16.954545454545467 L531.8404806501244 16.954545454545467 L532.1010679743385 16.954545454545467 L532.3616552985527 16.954545454545467 L532.6222426227669 16.954545454545467 L532.882829946981 16.954545454545467 L533.1434172711952 16.954545454545467 L533.4040045954093 16.954545454545467 L533.6645919196235 16.954545454545467 L533.9251792438376 16.954545454545467 L534.1857665680518 16.954545454545467 L534.446353892266 16.954545454545467 L534.7069412164801 16.954545454545467 L534.9675285406943 16.954545454545467 L535.2281158649084 16.954545454545467 L535.4887031891226 16.954545454545467 L535.7492905133367 16.954545454545467 L536.0098778375509 16.954545454545467 L536.2704651617651 16.954545454545467 L536.5310524859792 16.954545454545467 L536.7916398101934 16.954545454545467 L537.0522271344075 16.954545454545467 L537.3128144586217 16.954545454545467 L537.5734017828358 16.954545454545467 L537.83398910705 16.954545454545467 L538.0945764312642 16.954545454545467 L538.3551637554783 16.954545454545467 L538.6157510796925 16.954545454545467 L538.8763384039066 16.954545454545467 L539.1369257281208 16.954545454545467 L539.397513052335 16.954545454545467 L539.6581003765491 16.954545454545467 L539.9186877007633 16.954545454545467 L540.1792750249774 16.954545454545467 L540.4398623491916 16.954545454545467 L540.7004496734057 16.954545454545467 L540.9610369976199 16.954545454545467 L541.221624321834 16.954545454545467 L541.4822116460482 16.954545454545467 L541.7427989702624 16.954545454545467 L542.0033862944765 16.954545454545467 L542.2639736186907 16.954545454545467 L542.5245609429048 16.954545454545467 L542.785148267119 16.954545454545467 L543.0457355913331 16.954545454545467 L543.3063229155473 16.954545454545467 L543.5669102397615 16.954545454545467 L543.8274975639756 16.954545454545467 L544.0880848881898 16.954545454545467 L544.3486722124039 16.954545454545467 L544.6092595366181 16.954545454545467 L544.8698468608322 16.954545454545467 L545.1304341850464 16.954545454545467 L545.3910215092606 16.954545454545467 L545.6516088334747 16.954545454545467 L545.9121961576889 16.954545454545467 L546.172783481903 16.954545454545467 L546.4333708061172 16.954545454545467 L546.6939581303313 16.954545454545467 L546.9545454545455 16.954545454545467 " fill="none" stroke-width="3.3000000000000003" stroke="rgb(250,200,88)" stroke-opacity="1.0">
                </path>
              </g>
            </g>
          </g>
        </g>
        <defs>
          <clipPath id="c1OwoCV">
            <rect x="0.0" y="0.0" width="573.0" height="373.0">
            </rect>
          </clipPath>
        </defs>
        <defs>
          <clipPath id="cNxsBuF">
            <rect x="0.0" y="0.0" width="573.0" height="373.0">
            </rect>
          </clipPath>
        </defs>
        <defs>
          <clipPath id="cSBJlt0">
            <rect x="0.0" y="0.0" width="573.0" height="373.0">
            </rect>
          </clipPath>
        </defs>
      </g>
      <g>
      </g>
    </g>
    <g transform="translate(15.0 192.5 ) rotate(-90.0 ) ">
      <text class="axis-title-y" y="0.0" text-anchor="middle">
        <tspan>y</tspan>
      </text>
    </g>
    <g transform="translate(307.5 394.0 ) ">
      <text class="axis-title-x" y="0.0" text-anchor="middle">
        <tspan>x</tspan>
      </text>
    </g>
    <path fill="rgb(0,0,0)" fill-opacity="0.0" stroke="rgb(0,0,0)" stroke-opacity="1.0" stroke-width="0.0" d="M0.0 0.0 L0.0 400.0 L600.0 400.0 L600.0 0.0 Z" pointer-events="none">
    </path>
  </g>
  <g id="dv2O0N8">
  </g>
</svg>