<svg xmlns="http://www.w3.org/2000/svg" xmlns:xlink="http://www.w3.org/1999/xlink" display="block" class="plt-container" width="600.0" height="400.0">
  <style type="text/css">
  .plt-container {
   font-family: sans-serif;
   user-select: none;
   -webkit-user-select: none;
   -moz-user-select: none;
   -ms-user-select: none;
}
text {
   text-rendering: optimizeLegibility;
}
#pYm9LkY .plot-title {
fill: #000000;
font-weight: normal;
   font-style: normal;font-family: sans-serif;
font-size: 16.0px;

}
#pYm9LkY .plot-subtitle {
fill: #000000;
font-weight: normal;
   font-style: normal;font-family: sans-serif;
font-size: 15.0px;

}
#pYm9LkY .plot-caption {
fill: #000000;
font-weight: normal;
   font-style: normal;font-family: sans-serif;
font-size: 13.0px;

}
#pYm9LkY .hyperlink-element {
fill: #118ed8;
font-weight: normal;
   font-style: normal;
}
#pYm9LkY .legend-title {
fill: #000000;
font-weight: normal;
   font-style: normal;font-family: sans-serif;
font-size: 15.0px;

}
#pYm9LkY .legend-item {
fill: #000000;
font-weight: normal;
   font-style: normal;font-family: sans-serif;
font-size: 13.0px;

}
#pYm9LkY .axis-title-x {
fill: #000000;
font-weight: normal;
   font-style: normal;font-family: sans-serif;
font-size: 15.0px;

}
#pYm9LkY .axis-text-x {
fill: #000000;
font-weight: normal;
   font-style: normal;font-family: sans-serif;
font-size: 13.0px;

}
#dW0fPv1 .axis-tooltip-text-x {
fill: #ffffff;
font-weight: normal;
   font-style: normal;font-family: sans-serif;
font-size: 13.0px;

}
#pYm9LkY .axis-title-y {
fill: #000000;
font-weight: normal;
   font-style: normal;font-family: sans-serif;
font-size: 15.0px;

}
#pYm9LkY .axis-text-y {
fill: #000000;
font-weight: normal;
   font-style: normal;font-family: sans-serif;
font-size: 13.0px;

}
#dW0fPv1 .axis-tooltip-text-y {
fill: #ffffff;
font-weight: normal;
   font-style: normal;font-family: sans-serif;
font-size: 13.0px;

}
#pYm9LkY .facet-strip-text-x {
fill: #000000;
font-weight: normal;
   font-style: normal;font-family: sans-serif;
font-size: 13.0px;

}
#pYm9LkY .facet-strip-text-y {
fill: #000000;
font-weight: normal;
   font-style: normal;font-family: sans-serif;
font-size: 13.0px;

}
#dW0fPv1 .tooltip-text {
fill: #000000;
font-weight: normal;
   font-style: normal;font-family: sans-serif;
font-size: 13.0px;

}
#dW0fPv1 .tooltip-title {
fill: #000000;
font-weight: bold;
   font-style: normal;font-family: sans-serif;
font-size: 13.0px;

}
#dW0fPv1 .tooltip-label {
fill: #000000;
font-weight: bold;
   font-style: normal;font-family: sans-serif;
font-size: 13.0px;

}

  </style>
  <g id="pYm9LkY">
    <path fill-rule="evenodd" fill="rgb(255,255,255)" fill-opacity="1.0" d="M0.0 0.0 L0.0 400.0 L600.0 400.0 L600.0 0.0 Z">
    </path>
    <g transform="translate(21.0 6.0 ) ">
      <g>
        <g transform="">
          <g>
          </g>
        </g>
        <g transform="">
          <g>
          </g>
        </g>
        <g transform="translate(0.0 373.0 ) ">
        </g>
        <g transform="">
        </g>
      </g>
      <g clip-path="url(#cEJOk2B)" clip-bounds-jfx="[rect (0.0, 0.0), (573.0, 373.0)]">
        <g transform="">
          <g>
            <g>
              <line x1="0.0" y1="186.5" x2="573.0" y2="186.5" stroke="rgb(115,192,222)" stroke-opacity="0.5" fill="none" stroke-width="1.1">
              </line>
            </g>
            <g>
              <line x1="402.64864864864865" y1="373.0" x2="402.64864864864865" y2="0.0" stroke="rgb(115,192,222)" stroke-opacity="0.5" fill="none" stroke-width="1.1">
              </line>
            </g>
            <g>
              <g>
                <path d="M15.486486486486513 190.73863636363637 L15.486486486486513 190.73863636363637 L17.035141042760927 190.72168178382245 L18.58379559903534 190.70472695136613 L20.132450155309755 190.6877723715522 L21.68110471158417 190.6708177917383 L23.229759267858583 190.65386321192437 L24.778413824132997 190.63690863211048 L26.32706838040741 190.61995405229655 L27.875722936681825 190.60299947248265 L29.42437749295624 190.58604489266872 L30.973032049230653 190.5690900602124 L32.52168660550507 190.55213548039848 L34.07034116177948 190.53518090058458 L35.618995718053895 190.51822632077065 L37.16765027432831 190.50127174095675 L38.71630483060272 190.48431716114283 L40.26495938687714 190.4673625813289 L41.81361394315155 190.450408001515 L43.362268499425966 190.43345316905868 L44.91092305570038 190.41649858924475 L46.459577611974794 190.39954400943085 L48.00823216824921 190.38258942961693 L49.55688672452362 190.365634849803 L51.105541280798036 190.3486802699891 L52.65419583707245 190.33172569017518 L54.202850393346864 190.31477111036128 L55.75150494962128 190.29781653054735 L57.30015950589569 190.28086169809103 L58.848814062170106 190.2639071182771 L60.39746861844452 190.2469525384632 L61.946123174718934 190.22999795864928 L63.49477773099335 190.21304337883538 L65.04343228726776 190.19608879902145 L66.59208684354218 190.17913421920755 L68.14074139981659 190.16217963939363 L69.689395956091 190.1452248069373 L71.23805051236542 190.12827022712338 L72.78670506863983 190.11131564730948 L74.33535962491425 190.09436106749556 L75.88401418118866 190.07740648768166 L77.43266873746308 190.06045190786773 L78.98132329373749 190.04349732805383 L80.5299778500119 190.0265427482399 L82.07863240628632 190.009588168426 L83.62728696256073 189.99263333596966 L85.17594151883515 189.97567875615576 L86.72459607510956 189.95872417634183 L88.27325063138397 189.94176959652793 L89.82190518765839 189.924815016714 L91.3705597439328 189.9078604369001 L92.91921430020722 189.89090585708618 L94.46786885648163 189.87395127727225 L96.01652341275604 189.85699644481593 L97.56517796903046 189.84004186500204 L99.11383252530487 189.8230872851881 L100.66248708157929 189.8061327053742 L102.2111416378537 189.78917812556028 L103.75979619412811 189.77222354574636 L105.30845075040253 189.75526896593246 L106.85710530667694 189.73831438611853 L108.40575986295136 189.72135980630463 L109.95441441922577 189.7044049738483 L111.50306897550018 189.68745039403439 L113.0517235317746 189.67049581422046 L114.60037808804901 189.65354123440656 L116.14903264432343 189.63658665459263 L117.69768720059784 189.61963207477874 L119.24634175687225 189.6026774949648 L120.79499631314667 189.5857229151509 L122.34365086942108 189.56876808269456 L123.8923054256955 189.55181350288066 L125.44095998196991 189.53485892306674 L126.98961453824433 189.51790434325284 L128.53826909451874 189.5009497634389 L130.08692365079315 189.483995183625 L131.63557820706757 189.46704060381109 L133.18423276334198 189.4500860239972 L134.7328873196164 189.43313144418326 L136.2815418758908 189.41617661172694 L137.83019643216522 189.399222031913 L139.37885098843964 189.38226745209911 L140.92750554471405 189.3653128722852 L142.47616010098847 189.3483582924713 L144.02481465726288 189.33140371265736 L145.5734692135373 189.31444913284346 L147.12212376981168 189.29749455302954 L148.6707783260861 189.28053972057322 L150.2194328823605 189.2635851407593 L151.76808743863492 189.2466305609454 L153.31674199490934 189.22967598113146 L154.86539655118375 189.21272140131757 L156.41405110745816 189.19576682150364 L157.96270566373258 189.1788122416897 L159.511360220007 189.1618576618758 L161.0600147762814 189.1449028294195 L162.60866933255582 189.12794824960557 L164.15732388883023 189.11099366979167 L165.70597844510465 189.09403908997774 L167.25463300137906 189.07708451016381 L168.80328755765348 189.06012993034992 L170.3519421139279 189.043175350536 L171.9005966702023 189.0262207707221 L173.44925122647672 189.00926619090816 L174.99790578275113 188.99231135845184 L176.54656033902555 188.97535677863792 L178.09521489529996 188.95840219882402 L179.64386945157437 188.9414476190101 L181.1925240078488 188.9244930391962 L182.7411785641232 188.90753845938227 L184.28983312039762 188.89058387956837 L185.83848767667203 188.87362929975444 L187.38714223294645 188.85667446729812 L188.93579678922086 188.8397198874842 L190.48445134549527 188.8227653076703 L192.0331059017697 188.80581072785637 L193.5817604580441 188.78885614804247 L195.13041501431852 188.77190156822854 L196.67906957059293 188.75494698841464 L198.22772412686734 188.73799240860072 L199.77637868314176 188.72103782878682 L201.32503323941617 188.70408299633047 L202.87368779569059 188.68712841651657 L204.422342351965 188.67017383670265 L205.9709969082394 188.65321925688875 L207.51965146451383 188.63626467707482 L209.06830602078824 188.61931009726092 L210.61696057706266 188.6023553911258 L212.16561513333707 188.58540081131187 L213.71426968961148 188.56844623149797 L215.2629242458859 188.55149165168405 L216.8115788021603 188.53453694554892 L218.36023335843473 188.51758236573502 L219.90888791470914 188.5006277859211 L221.45754247098355 188.48367320610717 L223.00619702725797 188.46671849997207 L224.55485158353238 188.44976392015815 L226.1035061398068 188.43280934034422 L227.6521606960812 188.41585476053032 L229.20081525235562 188.3989001807164 L230.74946980863004 188.38194547458127 L232.29812436490445 188.36499089476737 L233.84677892117887 188.34803631495345 L235.39543347745328 188.33108173513955 L236.9440880337277 188.31412702900442 L238.4927425900021 188.2971724491905 L240.04139714627652 188.2802178693766 L241.59005170255094 188.26326328956267 L243.13870625882535 188.24630858342755 L244.68736081509977 188.22935400361365 L246.23601537137418 188.21239942379972 L247.7846699276486 188.19544484398583 L249.333324483923 188.1784901378507 L250.88197904019742 188.16153555803677 L252.43063359647184 188.14458097822288 L253.97928815274625 188.12762639840895 L255.52794270902066 188.11067181859505 L257.07659726529505 188.09371711245993 L258.62525182156946 188.076762532646 L260.1739063778439 188.0598079528321 L261.7225609341183 188.04285337301818 L263.2712154903927 188.02589866688305 L264.8198700466671 188.00894408706915 L266.36852460294153 187.99198950725523 L267.91717915921595 187.97503492744133 L269.46583371549036 187.9580802213062 L271.0144882717648 187.94112564149228 L272.5631428280392 187.92417106167838 L274.1117973843136 187.90721648186445 L275.660451940588 187.89026177572933 L277.20910649686243 187.87330719591543 L278.75775366860466 187.8563527424227 L280.3064008403469 187.8393981626088 L281.85504801208907 187.82244358279488 L283.4036951838313 187.80548912930217 L284.9523423555735 187.78853454948828 L286.5009895273157 187.77158009599555 L288.04963669905794 187.75462551618165 L289.5982838708001 187.73767093636772 L291.14693104254235 187.72071648287502 L292.6955782142845 187.70376190306112 L294.24422538602676 187.6868074495684 L295.79287255776893 187.6698528697545 L297.34151972951116 187.65289828994057 L298.89016690125334 187.63594383644786 L300.43881407299557 187.61898925663397 L301.9874612447378 187.60203480314124 L303.53610841648 187.58508022332734 L305.0847555882222 187.5681256435134 L306.6334027599644 187.5511711900207 L308.1820499317066 187.5342166733674 L309.73069710344885 187.51726209355348 L311.279344275191 187.50030757690018 L312.8279914469332 187.48335306024686 L314.37663861867543 187.46639854359356 L315.92528579041766 187.44944402694026 L317.47393296215984 187.43248944712633 L319.02258013390207 187.41553493047303 L320.57122730564424 187.3985804138197 L322.1198744773865 187.3816258971664 L323.6685216491287 187.3646713805131 L325.2171688208709 187.34771680069917 L326.7658159926131 187.33076228404587 L328.3144631643553 187.31380776739255 L329.8631103360975 187.29685325073925 L331.41175750783975 187.27989873408595 L332.9604046795819 187.26294415427202 L334.5090518513241 187.24598963761872 L336.05769902306633 187.2290351209654 L337.60634619480857 187.2120806043121 L339.15499336655074 187.1951260876588 L340.703640538293 187.17817150784487 L342.25228771003515 187.16121699119157 L343.8009348817774 187.14426247453824 L345.3495820535196 187.12730795788494 L346.8982292252618 187.11035344123164 L348.446876397004 187.0933988614177 L349.9955235687462 187.0764443447644 L351.5441707404884 187.05948982811108 L353.0928179122306 187.04253531145778 L354.64146508397283 187.02558076322418 L356.190112255715 187.00862624657086 L357.73875942745724 186.99167172991756 L359.28740659919947 186.97471718168393 L360.83605377094165 186.95776266503063 L362.3847009426839 186.94080811679703 L363.93334811442605 186.9238536001437 L365.4819952861683 186.9068990834904 L367.03064245791046 186.88994453525677 L368.5792896296527 186.87299001860347 L370.12793680139487 186.85603550195017 L371.67658581927014 186.83908092213625 L373.2252348371454 186.82212637390265 L374.7738838550207 186.80517182566902 L376.3225328728959 186.78821727743542 L377.8711818907712 186.7712627292018 L379.4198309086465 186.75430819675833 L380.9684799265217 186.73735364852473 L382.517128944397 186.72039910029113 L384.06577796227225 186.7034445520575 L385.61442698014747 186.68648998803374 L387.16307599802275 186.66953543980014 L388.711725015898 186.65258089156652 L390.26037403377325 186.63562634333292 L391.8090230516485 186.6186717950993 L393.3576720695238 186.6017172468657 L394.90632062586576 186.58476270652716 L396.4549691822078 186.56780815829353 L398.0036177385498 186.550853617955 L399.55226629489175 186.53389907366892 L401.1009149666171 186.5169445274091 L402.6495636383424 186.49899827282536 L404.1982123100677 184.8035437021066 L405.746860981793 183.1080891313878 L407.29550953813504 181.41263468699023 L408.844158094477 179.71718024259263 L410.392806650819 178.02172579819506 L411.9414556686943 176.32627084851265 L413.4901046865695 174.63081589883024 L415.0387537044448 172.93536094914782 L416.58740272232006 171.23990599946544 L418.13605081712876 169.54445206035268 L419.68469983500404 167.84899711067027 L421.2333488528793 166.15354216098785 L422.78199787075454 164.45808721130544 L424.3306468886298 162.76263226162303 L425.87929590650504 161.06717731194064 L427.4279449243803 159.37172236225823 L428.9765939422556 157.6762674125758 L430.52524296013087 155.9808124628934 L432.0738919780061 154.28535751321098 L433.62254099588137 152.5899025635286 L435.17118816762354 150.8944496349855 L436.7198353393658 149.19899670644241 L438.268482511108 147.50354377789932 L439.8171296828502 145.80809084935623 L441.3657768545924 144.11263792081314 L442.9144240263346 142.41718499227005 L444.4630711980768 140.72173206372696 L446.011718369819 139.02627913518387 L447.5603655415612 137.33082620664078 L449.10901271330346 135.6353732780977 L450.65765988504563 133.9399203495546 L452.20630705678786 132.2444674210115 L453.75495422853004 130.54901449246842 L455.30360140027227 128.85356156392533 L456.85224857201445 127.15810863538222 L458.4008957437567 125.46265570683913 L459.9495429154989 123.76720277829604 L461.4981900872411 122.07174984975295 L463.0468372589833 120.37629692120986 L464.5954881229916 118.68083995038813 L466.1441352947338 116.98538702184504 L467.69278246647605 115.28993409330195 L469.2414296382182 113.59448116475886 L470.79007680996045 111.89902823621577 L472.3387239817026 110.20357530767268 L473.88737115344486 108.50812237912959 L475.4360183251871 106.8126694505865 L476.98466549692927 105.1172165220434 L478.53331266867144 103.42176359350032 L480.0819598404137 101.72631066495723 L481.6306070121559 100.03085773641413 L483.1792541838981 98.33540480787104 L484.7279013556403 96.63995187932795 L486.2765485273825 94.94449895078486 L487.8251956991247 93.24904602224177 L489.37384287086695 91.55359309369868 L490.9224900426091 89.85814016515559 L492.47113721435136 88.1626872366125 L494.01978438609353 86.46723430806941 L495.56843155783577 84.77178137952632 L497.11707872957794 83.07632845098323 L498.6657259013202 81.38087552244014 L500.21437307306235 79.68542259389704 L501.7630202448046 77.98996966535395 L503.3116674165468 76.29451673681086 L504.860314588289 74.59906380826777 L506.4089617600312 72.90361087972468 L507.9576089317734 71.20815795118159 L509.5062561035156 69.5127050226385 L511.05490327525786 67.81725209409541 L512.6035504470001 66.12179916555232 L514.1521976187422 64.42634623700923 L515.7008447904844 62.730893308466136 L517.2494919622267 61.035440379923045 L518.7981391339689 59.339987451379955 L520.346786305711 57.644534522836864 L521.8954334774533 55.94908159429377 L523.4440806491955 54.25362866575068 L524.9927278209377 52.55817573720759 L526.5413823772121 50.862714724107235 L528.0900369334865 49.16725371100688 L529.638691489761 47.471792697906494 L531.1873460460354 45.77633168480614 L532.7360006023098 44.08087067170578 L534.2846551585842 42.385409658605425 L535.8333097148586 40.68994864550504 L537.381964271133 38.994487632404685 L538.9306188274074 37.29902661930433 L540.4792733836819 35.603565606203944 L542.0279279399563 33.90810459310359 L543.5765824962307 32.21264358000323 L545.1252370525051 30.517182566902875 L546.6738916087795 28.82172155380249 L548.2225461650539 27.126260540702134 L549.7712007213283 25.430799527601778 L551.3198552776028 23.73533851450142 L552.8685098338772 22.039877501401037 L554.4171643901516 20.34441648830068 L555.965818946426 18.648955475200324 " fill="none" stroke-width="3.3000000000000003" stroke="rgb(250,200,88)" stroke-opacity="1.0">
                </path>
              </g>
            </g>
          </g>
        </g>
        <defs>
          <clipPath id="c22OUrr">
            <rect x="0.0" y="0.0" width="573.0" height="373.0">
            </rect>
          </clipPath>
        </defs>
        <defs>
          <clipPath id="cueLNJ7">
            <rect x="0.0" y="0.0" width="573.0" height="373.0">
            </rect>
          </clipPath>
        </defs>
        <defs>
          <clipPath id="cEJOk2B">
            <rect x="0.0" y="0.0" width="573.0" height="373.0">
            </rect>
          </clipPath>
        </defs>
      </g>
      <g>
      </g>
    </g>
    <g transform="translate(15.0 192.5 ) rotate(-90.0 ) ">
      <text class="axis-title-y" y="0.0" text-anchor="middle">
        <tspan>y</tspan>
      </text>
    </g>
    <g transform="translate(307.5 394.0 ) ">
      <text class="axis-title-x" y="0.0" text-anchor="middle">
        <tspan>x</tspan>
      </text>
    </g>
    <path fill="rgb(0,0,0)" fill-opacity="0.0" stroke="rgb(0,0,0)" stroke-opacity="1.0" stroke-width="0.0" d="M0.0 0.0 L0.0 400.0 L600.0 400.0 L600.0 0.0 Z" pointer-events="none">
    </path>
  </g>
  <g id="dW0fPv1">
  </g>
</svg>